<svg width="174" height="39" viewBox="0 0 174 39" fill="none" xmlns="http://www.w3.org/2000/svg">
<path d="M23.3573 4.36817C24.2003 3.12819 26.1392 3.72486 26.1392 5.22427V16.3913L8.63051 31.3502C7.28016 32.5039 5.38363 30.8052 6.38221 29.3364L23.3573 4.36817Z" fill="#006ED4"/>
<path d="M25.8771 4.36817C25.0341 3.12819 23.0952 3.72486 23.0952 5.22427V16.3913L40.6039 31.3502C41.9542 32.5039 43.8507 30.8052 42.8522 29.3364L25.8771 4.36817Z" fill="#006ED4"/>
<path d="M30.9623 11.8481L24.6432 17.6596L40.5742 31.2396C41.9263 32.3922 43.8212 30.69 42.8197 29.2225L30.9623 11.8481Z" fill="url(#paint0_linear_827_2984)"/>
<path d="M73.0774 22.967V31H77.7085V22.967L84.8553 9.84554H79.8239L76.2791 16.6779C75.9361 17.3639 75.7074 17.9071 75.4501 18.4217C75.2214 17.8785 74.9927 17.3639 74.6497 16.7064L71.1049 9.84554H65.9306L73.0774 22.967ZM86.7867 31L88.3018 26.5404H95.1341L96.6206 31H101.538L94.0192 9.84554H89.5024L81.9554 31H86.7867ZM91.1605 18.1358C91.4178 17.3639 91.6465 16.5635 91.7322 16.0775C91.818 16.5921 92.0753 17.4211 92.304 18.1358L93.8191 22.6526H89.6454L91.1605 18.1358ZM106.302 31L107.817 26.5404H114.649L116.136 31H121.053L113.534 9.84554H109.018L101.471 31H106.302ZM110.676 18.1358C110.933 17.3639 111.162 16.5635 111.247 16.0775C111.333 16.5921 111.59 17.4211 111.819 18.1358L113.334 22.6526H109.161L110.676 18.1358ZM127.002 9.84554H122.371V31H135.35V26.7119H127.002V9.84554ZM150.549 31V26.7119H141.744V22.3381H149.548V18.2787H141.744V14.1336H150.549V9.84554H137.113V31H150.549ZM157.825 31V22.481H166.001V31H170.632V9.84554H166.001V18.193H157.825V9.84554H153.194V31H157.825Z" fill="white"/>
<defs>
<linearGradient id="paint0_linear_827_2984" x1="34.6421" y1="7.15325" x2="41.8748" y2="31.7698" gradientUnits="userSpaceOnUse">
<stop stop-color="#014586"/>
<stop offset="1" stop-color="#006ED4"/>
</linearGradient>
</defs>
</svg>
