<svg width="41" height="42" viewBox="0 0 41 42" fill="none" xmlns="http://www.w3.org/2000/svg">
<path d="M36 27.7504C34.9203 30.3037 33.2316 32.5537 31.0815 34.3036C28.9314 36.0535 26.3854 37.25 23.666 37.7886C20.9466 38.3272 18.1367 38.1914 15.482 37.3932C12.8272 36.5949 10.4083 35.1585 8.43695 33.2095C6.46556 31.2605 5.00162 28.8582 4.17311 26.2128C3.34461 23.5673 3.17677 20.7591 3.68428 18.0338C4.19178 15.3084 5.35917 12.7489 7.08439 10.5789C8.8096 8.40899 11.0401 6.6947 13.5809 5.58594" stroke="black" stroke-width="2.03655"/>
<path d="M37.3375 21.149C37.3375 18.9203 36.8985 16.7134 36.0456 14.6544C35.1928 12.5953 33.9427 10.7244 32.3667 9.14851C30.7908 7.57258 28.9199 6.32248 26.8608 5.4696C24.8018 4.61671 22.5949 4.17773 20.3662 4.17773V21.149H37.3375Z" stroke="black" stroke-width="2.03655"/>
</svg>
