<svg width="41" height="41" viewBox="0 0 41 41" fill="none" xmlns="http://www.w3.org/2000/svg">
<path d="M33.3701 24.5935C33.3701 15.8124 27.5447 8.69531 20.3599 8.69531C13.175 8.69531 7.34961 15.8124 7.34961 24.5935" stroke="black" stroke-width="2.03655" stroke-linecap="round" stroke-linejoin="round"/>
<path d="M11.6855 24.5919C11.6855 18.7379 15.5687 13.9932 20.3586 13.9932C25.1485 13.9932 29.0316 18.7379 29.0316 24.5919" stroke="black" stroke-width="2.03655" stroke-linecap="round" stroke-linejoin="round"/>
<path d="M24.696 24.5904C24.696 21.6634 22.7537 19.291 20.3587 19.291C17.9638 19.291 16.0215 21.6634 16.0215 24.5904" stroke="black" stroke-width="2.03655" stroke-linecap="round" stroke-linejoin="round"/>
<path d="M7.34961 24.5938C7.34961 26.551 7.52877 28.457 7.8582 30.2941" stroke="black" stroke-width="2.03655" stroke-linecap="round" stroke-linejoin="round"/>
<path d="M14.821 36.7417C12.8469 33.3006 11.6855 29.1141 11.6855 24.5938" stroke="black" stroke-width="2.03655" stroke-linecap="round" stroke-linejoin="round"/>
<path d="M22.1607 38.0931C18.4757 35.2861 16.0215 30.2906 16.0215 24.5938" stroke="black" stroke-width="2.03655" stroke-linecap="round" stroke-linejoin="round"/>
<path d="M29.5005 35.1643C29.3443 35.1749 29.191 35.1925 29.0334 35.1925C24.2435 35.1925 20.3604 30.4478 20.3604 24.5938" stroke="black" stroke-width="2.03655" stroke-linecap="round" stroke-linejoin="round"/>
<path d="M24.6963 24.5938C24.6963 27.5208 26.6386 29.8931 29.0335 29.8931C31.4285 29.8931 33.3708 27.5208 33.3708 24.5938" stroke="black" stroke-width="2.03655" stroke-linecap="round" stroke-linejoin="round"/>
<path d="M20.3573 3.39648C15.5298 3.39648 11.2056 5.99495 8.24805 10.0984" stroke="black" stroke-width="2.03655" stroke-linecap="round" stroke-linejoin="round"/>
<path d="M32.4696 10.0984C29.5121 5.99495 25.1879 3.39648 20.3604 3.39648" stroke="black" stroke-width="2.03655" stroke-linecap="round" stroke-linejoin="round"/>
</svg>
