<svg width="41" height="42" viewBox="0 0 41 42" fill="none" xmlns="http://www.w3.org/2000/svg">
<path fill-rule="evenodd" clip-rule="evenodd" d="M13.1199 9.80316C11.1721 9.80316 9.31492 10.5345 7.95433 11.8195C7.35564 12.3849 6.87483 13.0366 6.52427 13.7418C6.79585 13.6755 7.07962 13.6404 7.37159 13.6404L30.2448 13.6404V9.80316H13.1199ZM5.84417 17.2029V20.5347V31.6961C5.84417 32.5397 6.52802 33.2235 7.37159 33.2235H33.6132C34.4567 33.2235 35.1406 32.5397 35.1406 31.6961V17.2044C35.1406 16.3608 34.4567 15.677 33.6132 15.677L7.37159 15.677C6.52852 15.677 5.84498 16.36 5.84417 17.2029ZM3.80762 16.6181V17.2044V20.5347V31.6961C3.80762 33.6644 5.40326 35.2601 7.37159 35.2601L33.6132 35.2601C35.5815 35.2601 37.1771 33.6644 37.1771 31.6961V17.2044C37.1771 15.2361 35.5815 13.6404 33.6132 13.6404H32.2813V8.78488V7.7666H31.2631H13.1199C10.6683 7.7666 8.30626 8.68584 6.55598 10.3389C4.80373 11.9938 3.80762 14.2512 3.80762 16.6181ZM27.3444 25.4708L31.261 25.4708L31.261 23.4342H27.3444V25.4708Z" fill="black"/>
</svg>
